<svg width="72" height="72" viewBox="0 0 72 72" fill="none" xmlns="http://www.w3.org/2000/svg">
<path d="M41.1125 40.8511H30.5867V48.7659H41.1125V40.8511Z" fill="#93C5FD"/>
<path d="M33.5304 46.9203C35.2229 46.8471 36.8711 46.1372 38.1732 45.0592C39.2291 44.1829 40.081 43.1448 40.7198 41.9314C40.8463 41.694 40.9838 41.4234 41.1125 41.135V40.8533H30.5867V46.7761C31.5649 46.9048 32.5565 46.9625 33.5304 46.9203Z" fill="#2563EB"/>
<path d="M35.458 7.41699C28.3107 7.57005 21.5316 13.2156 22.6008 22.812C23.2463 28.6106 23.7521 29.4713 25.4802 36.1306C26.6758 40.738 33.0357 43.167 35.458 43.3267C37.8826 43.1692 44.2425 40.738 45.4381 36.1306C47.1662 29.4713 47.6697 28.6106 48.3175 22.812C49.3867 13.2156 42.6076 7.57005 35.458 7.41699Z" fill="#93C5FD"/>
<path d="M47.4745 25.3986L46.7248 31.144C49.6729 32.4417 50.1343 25.6804 50.1343 25.6804C49.451 23.9945 47.4745 25.3986 47.4745 25.3986Z" fill="#93C5FD"/>
<path d="M20.6842 25.6804C20.6842 25.6804 21.1456 32.4417 24.0937 31.144L23.3439 25.3986C23.3417 25.3986 21.3652 23.9945 20.6842 25.6804Z" fill="#93C5FD"/>
<path d="M41.1125 46.4702L55.0811 50.3855C55.0811 50.3855 59.8482 51.173 61.0638 55.7826L63.149 64.1434H35.9882H35.7486H8.59007L10.6753 55.7826C11.8909 51.1708 16.658 50.3855 16.658 50.3855L30.5867 46.4702H41.1125Z" fill="#93C5FD"/>
<path d="M41.1125 46.4702L55.0811 50.3855C55.0811 50.3855 59.8482 51.173 61.0638 55.7826L63.149 64.1434C63.149 64.1434 47.6526 67.9301 37.5388 67.9979C37.0623 68.0011 36.7952 68.0006 36.3187 67.9979C25.3861 67.935 8.59007 64.1434 8.59007 64.1434L10.6753 55.7826C11.8909 51.1708 16.658 50.3855 16.658 50.3855L30.5867 46.4702L35.8706 57.4131L41.1125 46.4702Z" fill="#2563EB"/>
<path d="M29.8857 67.6651L19.6815 66.3341L8.59007 64.1456L10.6753 55.7848C11.8909 51.173 16.658 50.3877 16.658 50.3877L28.9584 46.936L29.8857 67.6651Z" fill="#3B82F6"/>
<path d="M43.5304 47.1489L55.0811 50.3854C55.0811 50.3854 59.8482 51.1729 61.0638 55.7825L63.149 64.1433L52.6232 66.3341L42.419 67.776L43.5304 47.1489Z" fill="#3B82F6"/>
<path d="M25.0653 54.7954C25.0653 54.7954 29.6683 51.4413 34.025 53.7195C34.025 53.7195 31.4096 47.2243 25.0653 54.7954Z" fill="#DBEAFE"/>
<path d="M34.4066 54.3784C34.4066 54.3784 32.2681 48.988 25.0653 54.7955L27.6386 47.2999L30.6332 46.4702L34.4066 54.3784Z" fill="#2563EB"/>
<path d="M46.6804 54.7954C46.6804 54.7954 41.1125 50.9245 37.5366 53.9347C37.5366 53.9347 40.3361 47.2244 46.6804 54.7954Z" fill="#DBEAFE"/>
<path d="M37.5366 53.9348C37.5366 53.9348 39.4798 48.9902 46.6804 54.7955L44.116 47.3132L41.1147 46.4702L37.5366 53.9348Z" fill="#2563EB"/>
<path d="M27.7583 12.4659C27.7583 12.4659 26.241 18.1714 36.7846 21.175C36.7846 21.175 44.9102 22.7766 48.2509 20.6625C48.2509 20.6625 45.1387 7.6833 27.7583 12.4659Z" fill="#2563EB"/>
<path d="M50.1343 13.5284C49.9923 16.4987 50.1498 20.017 48.6303 25.1789C48.4595 25.7535 47.8139 27.4327 47.8139 27.4327L47.2727 27.4505V23.7148C46.9399 18.3932 46.5939 18.3554 46.5939 18.3554C36.0525 21.2681 29.5529 15.9065 29.5529 15.9065C28.9119 15.323 28.4416 14.7396 28.1 14.1695C27.2171 14.8683 26.3697 15.8399 25.6598 17.1953C25.6598 17.1953 24.0272 19.8816 24.2157 24.438V28.1736L23.6478 27.9496L22.8603 25.0015C21.8444 19.1518 22.4389 11.9157 22.4389 11.9157C22.4389 11.9157 23.4948 5.57586 31.1812 4.16281C31.1812 4.16281 44.786 2.89838 48.4284 7.41704C48.4284 7.41704 50.3073 9.87048 50.1343 13.5284Z" fill="#2563EB"/>
<path d="M27.1882 8.89453C27.1882 8.89453 27.1195 9.28717 27.1128 9.97484C27.1039 10.6581 27.1683 11.6452 27.5032 12.7433C27.6807 13.289 27.9358 13.8524 28.2752 14.4003C28.6124 14.9527 29.0738 15.4585 29.6017 15.9176C29.8568 16.1572 30.163 16.348 30.4558 16.5587C30.6133 16.6497 30.773 16.7384 30.9305 16.8316L31.1701 16.9691L31.423 17.0867C31.5916 17.1665 31.7601 17.2442 31.9309 17.324C32.1084 17.3884 32.2859 17.4549 32.4633 17.5215C32.8138 17.6657 33.1887 17.75 33.5547 17.8587C33.7366 17.9186 33.9252 17.9563 34.1137 17.9962L34.675 18.1204C35.0499 18.2003 35.4336 18.2402 35.8085 18.3023C36.565 18.3844 37.3125 18.482 38.0446 18.4997C38.7744 18.5463 39.4842 18.5375 40.1564 18.5485C40.4936 18.5574 40.8196 18.5286 41.1391 18.5264C41.4563 18.5197 41.7646 18.5131 42.0597 18.5064C42.6475 18.4687 43.1888 18.4398 43.6702 18.4177C44.1515 18.3955 44.5686 18.3511 44.9146 18.3289C45.6045 18.2779 46.0038 18.2602 46.0038 18.2602C46.0038 18.2602 45.62 18.3578 44.9412 18.5086C44.6018 18.5796 44.1915 18.6883 43.7145 18.7637C43.2376 18.8458 42.6985 18.939 42.1063 19.0277C41.514 19.092 40.8707 19.1808 40.1852 19.2296C39.4998 19.2651 38.7766 19.3272 38.0224 19.3028C37.6453 19.3005 37.2637 19.305 36.8755 19.2717C36.4873 19.2429 36.0947 19.2362 35.6998 19.1763C35.305 19.1164 34.9057 19.0787 34.5108 19.0011L33.9141 18.8791C33.7145 18.8369 33.5148 18.8014 33.3196 18.7393C32.9292 18.6173 32.5321 18.5219 32.155 18.3622C31.9642 18.289 31.7735 18.2158 31.5849 18.1426C31.4008 18.0539 31.2167 17.9651 31.0348 17.8764L30.7619 17.7433C30.6732 17.6945 30.5867 17.6413 30.5001 17.588C30.3293 17.4793 30.1563 17.3773 29.9899 17.2664C29.6705 17.0201 29.3466 16.7939 29.0694 16.5166C28.4948 15.9886 28.0245 15.3786 27.6918 14.7464C27.3502 14.1186 27.1328 13.4775 26.9997 12.8786C26.8688 12.2774 26.8333 11.7162 26.8311 11.226C26.8244 10.7335 26.8821 10.3076 26.9331 9.96153C26.9842 9.61548 27.0574 9.34928 27.1039 9.1696C27.1527 8.9877 27.1882 8.89453 27.1882 8.89453Z" fill="#2563EB"/>
<path opacity="0.5" d="M28.466 10.0635C28.466 10.0635 30.0831 15.6292 36.7846 17.1621C36.7846 17.1621 33.5192 15.5516 32.6253 12.8076C32.6253 12.8076 34.2291 14.6066 36.7846 14.7197C36.7846 14.7197 32.4678 11.3701 32.3546 9.43799C32.3546 9.43799 30.3759 11.1993 31.9332 13.3C31.9332 13.3 30.651 13.0738 28.466 10.0635Z" fill="#93C5FD"/>
<path opacity="0.5" d="M39.5974 6.39447C39.5974 6.39447 48.0003 6.24363 48.4284 14.5156C48.4284 14.5156 48.0025 12.619 46.0016 11.8204C46.0016 11.8204 48.8565 15.1501 48.2509 20.6625C48.2509 20.6625 49.3246 16.7162 42.1085 10.871C42.1085 10.871 44.5908 10.1123 46.7248 11.1749C46.7248 11.1749 45.2141 7.45704 39.5974 6.39447Z" fill="#93C5FD"/>
<path d="M29.7149 21.7984C27.1949 21.7762 24.6594 21.6697 24.8368 25.5251C24.9411 27.79 26.5449 29.782 29.0583 29.9839C31.5694 30.1857 33.5925 28.5242 34.3755 26.2771C34.8414 24.2695 35.9505 21.8494 29.7149 21.7984ZM33.7344 26.2216C33.0578 28.1649 31.312 29.5957 29.1448 29.4226C26.9753 29.2496 25.5911 27.5304 25.5001 25.5739C25.3493 22.2464 27.5365 22.3396 29.7127 22.3574C35.0942 22.4017 34.1382 24.4914 33.7344 26.2216Z" fill="#2563EB"/>
<path d="M37.1595 26.5144C37.9869 28.7482 40.041 30.3698 42.5477 30.1191C45.0566 29.8684 46.6205 27.8476 46.6826 25.5805C46.7846 21.7229 44.2536 21.8804 41.7336 21.9491C35.498 22.1199 36.6515 24.5179 37.1595 26.5144ZM41.7447 22.5059C43.9208 22.446 46.1059 22.3107 46.0171 25.6404C45.9639 27.5969 44.6129 29.3427 42.4501 29.5579C40.285 29.773 38.5104 28.3755 37.7983 26.4478C37.3613 24.7264 36.3631 22.6545 41.7447 22.5059Z" fill="#2563EB"/>
<path d="M34.6373 24.4225C34.6373 24.4225 35.9793 23.5418 37.246 24.4536C37.246 24.4536 36.9465 23.5884 37.5055 23.0094C37.5055 23.0094 36.1324 22.3373 34.3666 22.9717C34.3644 22.9695 34.7216 23.8302 34.6373 24.4225Z" fill="#2563EB"/>
<path d="M26.1612 22.262L22.6008 22.8121L22.8581 24.9993L25.2006 26.2371C25.2006 26.2394 24.7969 23.8436 26.1612 22.262Z" fill="#2563EB"/>
<path d="M45.6444 22.5615L49.0628 23.5753L48.5282 25.4985L46.5074 26.5633C46.5074 26.5633 46.971 24.1787 45.6444 22.5615Z" fill="#2563EB"/>
<path d="M41.7447 22.5059C43.9208 22.4461 46.1059 22.3107 46.0171 25.6404C45.9639 27.5969 44.6129 29.3427 42.4501 29.5579C40.285 29.7731 38.5104 28.3756 37.7983 26.4479C37.3613 24.7265 36.3631 22.6546 41.7447 22.5059Z" fill="#BFDBFE"/>
<path d="M33.7344 26.1994C33.0578 28.1404 31.312 29.5734 29.1426 29.4004C26.9753 29.2274 25.5889 27.5082 25.5001 25.5517C25.3471 22.2242 27.5343 22.3174 29.7127 22.3352C35.0942 22.3795 34.1382 24.4714 33.7344 26.1994Z" fill="#BFDBFE"/>
<path d="M30.5977 43.6368H29.7171C29.4465 43.6302 27.5298 43.6457 25.6487 45.427C23.1243 47.8183 21.0347 54.5375 21.4717 61.676H22.9779C22.4788 53.943 25.1407 48.0113 26.6425 46.5606C28.1487 45.1054 29.6106 45.1386 29.6638 45.1408H30.5977V43.6368Z" fill="#2563EB"/>
<path d="M46.5872 45.0371C45.5868 43.959 43.8765 43.4865 41.5051 43.6329H41.0703V45.1392H41.5273L41.5739 45.1369C43.4395 45.0171 44.786 45.3299 45.4625 46.042C46.0371 46.6454 45.9617 47.3708 45.9594 47.3996L47.4524 47.5992C47.4612 47.546 47.6409 46.1751 46.5872 45.0371Z" fill="#2563EB"/>
<path d="M52.1973 55.1814C52.3814 55.1814 52.5345 55.3256 52.5411 55.5097C52.5456 55.6007 52.6409 57.7679 52.2838 60.6229C52.2749 60.716 52.1928 61.4924 51.7869 62.2777C51.2057 63.4046 50.2518 63.9991 49.0251 63.9991C48.8343 63.9991 48.6813 63.8438 48.6813 63.6553C48.6813 63.4645 48.8366 63.3092 49.0251 63.3092C51.3299 63.3092 51.5872 60.6695 51.5961 60.5585C51.5961 60.5541 51.5961 60.5497 51.5983 60.5452C51.9488 57.7435 51.8534 55.5652 51.8512 55.543C51.8424 55.3522 51.9888 55.1903 52.1795 55.1814C52.1862 55.1814 52.1906 55.1814 52.1973 55.1814Z" fill="#DBEAFE"/>
<path d="M49.0273 63.9991C50.2518 63.9991 51.2079 63.4046 51.7891 62.2777C52.195 61.4924 52.2771 60.716 52.286 60.6229C52.6431 57.7657 52.5477 55.6007 52.5433 55.5097C52.5344 55.3234 52.3836 55.1814 52.1995 55.1814C52.195 55.1814 52.1884 55.1814 52.1839 55.1814C51.9932 55.1903 51.8468 55.3522 51.8556 55.543C51.8556 55.5474 51.8601 55.6339 51.8623 55.7914C51.8689 55.7914 51.8778 55.7892 51.8845 55.787C51.8889 55.787 51.8956 55.787 51.8978 55.787C52.0597 55.787 52.195 55.9134 52.2017 56.0776C52.2061 56.1574 52.2904 58.0696 51.9754 60.5918C51.9665 60.6739 51.8956 61.3593 51.5362 62.0537C51.0238 63.0475 50.1808 63.571 49.1005 63.571C48.9741 63.571 48.8654 63.4933 48.8188 63.3824C48.7367 63.4468 48.6835 63.5444 48.6835 63.6553C48.6813 63.8461 48.8365 63.9991 49.0273 63.9991Z" fill="#DBEAFE"/>
<path d="M41.4896 55.1814C41.3055 55.1814 41.1546 55.3256 41.1457 55.5097C41.1413 55.6007 41.0459 57.7679 41.4031 60.6229C41.4119 60.716 41.494 61.4924 41.9 62.2777C42.4811 63.4046 43.435 63.9991 44.6595 63.9991C44.8503 63.9991 45.0033 63.8438 45.0033 63.6553C45.0033 63.4645 44.8481 63.3092 44.6595 63.3092C42.3547 63.3092 42.0996 60.6695 42.0885 60.5585C42.0885 60.5541 42.0885 60.5497 42.0885 60.5452C41.738 57.7435 41.8334 55.5652 41.8334 55.543C41.8423 55.3522 41.6959 55.1903 41.5051 55.1814C41.4984 55.1814 41.494 55.1814 41.4896 55.1814Z" fill="#DBEAFE"/>
<path d="M44.6595 63.9991C43.435 63.9991 42.4811 63.4046 41.9 62.2777C41.494 61.4924 41.4119 60.716 41.4031 60.6229C41.0459 57.7657 41.1413 55.6007 41.1457 55.5097C41.1546 55.3234 41.3077 55.1814 41.4896 55.1814C41.494 55.1814 41.5007 55.1814 41.5051 55.1814C41.6959 55.1903 41.8423 55.3522 41.8334 55.543C41.8334 55.5474 41.8312 55.6339 41.8268 55.7914C41.8179 55.7914 41.8112 55.7892 41.8023 55.787C41.7979 55.787 41.7935 55.787 41.789 55.787C41.6271 55.787 41.4918 55.9134 41.4851 56.0776C41.4807 56.1574 41.3964 58.0696 41.7114 60.5918C41.7203 60.6739 41.7913 61.3593 42.1506 62.0537C42.663 63.0475 43.506 63.571 44.5863 63.571C44.7128 63.571 44.8214 63.4933 44.868 63.3824C44.9501 63.4468 45.0033 63.5444 45.0033 63.6553C45.0033 63.8461 44.8481 63.9991 44.6595 63.9991Z" fill="#DBEAFE"/>
<path d="M46.6005 47.0647C46.6205 47.0647 46.6405 47.0647 46.6538 47.0647C46.6671 47.0647 46.6826 47.0647 46.6981 47.0647C48.0934 47.0647 49.2891 47.5039 50.2541 48.3668C53.0425 50.8646 52.8894 56.1286 52.8827 56.3505C52.8716 56.6854 52.55 56.9472 52.1707 56.9361C51.7891 56.925 51.4919 56.6455 51.5007 56.3128C51.503 56.2462 51.6383 51.3371 49.2647 49.2142C48.5504 48.5731 47.6964 48.267 46.6515 48.2759C46.6316 48.2759 46.6249 48.2759 46.605 48.2759C46.5185 48.2737 45.5091 48.267 44.4798 49.1366C43.4306 50.0195 42.1817 51.9849 42.1817 56.3327C42.1817 56.6677 41.8733 56.9383 41.4918 56.9383C41.1103 56.9383 40.8019 56.6677 40.8019 56.3327C40.8019 52.4618 41.7336 49.7333 43.5748 48.2204C44.8858 47.1401 46.2412 47.0647 46.6005 47.0647Z" fill="#2563EB"/>
<path d="M41.4918 56.9383C41.8623 56.9383 42.1617 56.6832 42.1795 56.3615C41.8467 56.3615 41.5805 56.1242 41.5805 55.8336C41.5805 52.4618 42.3924 50.0838 43.994 48.7661C45.1387 47.8256 46.321 47.759 46.6338 47.759C46.6515 47.759 46.6693 47.759 46.6804 47.759C46.6937 47.759 46.7048 47.759 46.7181 47.759C47.9337 47.759 48.9763 48.1405 49.8171 48.8948C52.2461 51.0709 52.113 55.6561 52.1063 55.8513C52.0952 56.1375 51.829 56.3615 51.5052 56.3615C51.5207 56.6743 51.8091 56.9272 52.1729 56.9383C52.5522 56.9472 52.8716 56.6854 52.8849 56.3527C52.8916 56.1308 53.0447 50.8668 50.2563 48.369C49.2913 47.5039 48.0957 47.0669 46.7003 47.0669C46.6848 47.0669 46.6715 47.0669 46.656 47.0669C46.6427 47.0669 46.6249 47.0669 46.6027 47.0669C46.2434 47.0669 44.888 47.1445 43.5748 48.2226C41.7358 49.7355 40.8019 52.464 40.8019 56.3349C40.7997 56.6677 41.1102 56.9383 41.4918 56.9383Z" fill="#DBEAFE"/>
<path d="M47.6697 63.6175C47.6697 63.2891 47.9359 63.0229 48.2643 63.0229L49.3756 63.1183C49.7195 63.2048 49.7106 63.3845 49.7195 63.6175C49.7195 63.8659 49.7195 64.0478 49.3446 64.1343L48.262 64.212C47.9337 64.212 47.6697 63.9458 47.6697 63.6175Z" fill="#2563EB"/>
<path d="M48.4972 63.6175C48.2332 63.6197 48.0624 63.6951 47.9226 63.8925C48.0291 63.9968 48.1755 64.0611 48.3374 64.0611L48.9963 64.0146C49.0229 63.6996 48.8299 63.6153 48.4972 63.6175Z" fill="#3B82F6"/>
<path d="M48.7375 63.298C49.2234 63.3668 49.4141 63.7017 49.4141 64.1166C49.7203 64.0234 49.7203 63.8504 49.7203 63.6175C49.7092 63.3867 49.7203 63.2048 49.3764 63.1183L48.2651 63.0229C47.9745 63.0229 47.7349 63.2292 47.6816 63.5043C47.9656 63.2847 48.3338 63.2403 48.7375 63.298Z" fill="#93C5FD"/>
<path d="M46.3476 63.6175C46.3476 63.2891 46.0814 63.0229 45.7531 63.0229L44.6418 63.1183C44.2957 63.2048 44.3068 63.3845 44.2957 63.6175C44.2957 63.8659 44.2957 64.0478 44.6706 64.1343L45.7531 64.212C46.0814 64.212 46.3476 63.9458 46.3476 63.6175Z" fill="#2563EB"/>
<path d="M45.518 63.6175C45.782 63.6197 45.9528 63.6951 46.0903 63.8925C45.9838 63.9968 45.8374 64.0611 45.6755 64.0611L45.0167 64.0146C44.9923 63.6996 45.1853 63.6153 45.518 63.6175Z" fill="#3B82F6"/>
<path d="M45.2784 63.298C44.7926 63.3668 44.6018 63.7017 44.6018 64.1166C44.2957 64.0234 44.2957 63.8504 44.2957 63.6175C44.3068 63.3867 44.2957 63.2048 44.6418 63.1183L45.7531 63.0229C46.0415 63.0229 46.2833 63.2292 46.3366 63.5043C46.0504 63.2847 45.6844 63.2403 45.2784 63.298Z" fill="#93C5FD"/>
<path d="M19.2467 60.9712C19.2467 59.181 20.6975 57.7302 22.4877 57.7302C24.2778 57.7302 25.7286 59.181 25.7286 60.9712C25.7286 62.7613 24.2778 64.2121 22.4877 64.2121C20.6975 64.2121 19.2467 62.7613 19.2467 60.9712Z" fill="#2563EB"/>
<path d="M20.1385 60.9713C20.1385 59.6736 21.19 58.6199 22.4899 58.6199C23.7876 58.6199 24.8413 59.6713 24.8413 60.9713C24.8413 62.269 23.7876 63.3227 22.4899 63.3227C21.19 63.3204 20.1385 62.269 20.1385 60.9713Z" fill="#DBEAFE"/>
<path d="M20.5112 60.9711C20.5112 59.8797 21.3963 58.9946 22.4877 58.9946C23.5791 58.9946 24.4642 59.8797 24.4642 60.9711C24.4642 62.0625 23.5791 62.9476 22.4877 62.9476C21.3963 62.9476 20.5112 62.0625 20.5112 60.9711Z" fill="#93C5FD"/>
</svg>
